# xmcd
#
# Track frame offsets: 
#        150
#        18730
#        40658
#        63080
#        84355
#
# Disc length: 1140 seconds
#
# Revision: 0
# Processed by: cddbd v1.5.2PL0 Copyright (c) Steve Scherf et al.
# Submitted via: ExactAudioCopy v0.99pb4
#
DISCID=31047205
DTITLE=Pitbull - Everybody Get Up [CDS)
DYEAR=2005
DGENRE=Hip-Hop
TTITLE0=Everybody Get Up (ft. Pretty Ricky) (Radio)
TTITLE1=Everybody Get Up (ft. Pretty Ricky)
TTITLE2=Everybody Get Up (INST)
TTITLE3=Everybody Get Up (Acapella)
TTITLE4=Everybody Get Up (Call Out)
EXTD=
EXTT0=
EXTT1=
EXTT2=
EXTT3=
EXTT4=
PLAYORDER=
